<mxfile host="app.diagrams.net" modified="2021-10-11T12:49:33.948Z" agent="5.0 (Macintosh; Intel Mac OS X 10_15_7) AppleWebKit/537.36 (KHTML, like Gecko) Chrome/94.0.4606.71 Safari/537.36 Edg/94.0.992.38" etag="Yce0qSfAUA2VL-O5SvmX" version="15.5.0" type="github" pages="2">
  <diagram name="Page-1" id="822b0af5-4adb-64df-f703-e8dfc1f81529">
    <mxGraphModel dx="1929" dy="2063" grid="1" gridSize="10" guides="1" tooltips="1" connect="1" arrows="1" fold="1" page="1" pageScale="1" pageWidth="1100" pageHeight="850" background="none" math="0" shadow="0">
      <root>
        <mxCell id="0" />
        <mxCell id="1" parent="0" />
        <mxCell id="7d933b09d9755ecc-14" value="Resource forest" style="triangle;whiteSpace=wrap;html=1;rounded=0;shadow=0;comic=0;strokeWidth=1;fontFamily=Verdana;direction=north;labelPosition=center;verticalLabelPosition=bottom;align=center;verticalAlign=top;" parent="1" vertex="1">
          <mxGeometry x="830" y="230" width="530" height="537" as="geometry" />
        </mxCell>
        <mxCell id="7d933b09d9755ecc-12" value="User forest" style="triangle;whiteSpace=wrap;html=1;rounded=0;shadow=0;comic=0;strokeWidth=1;fontFamily=Verdana;direction=north;labelPosition=center;verticalLabelPosition=bottom;align=center;verticalAlign=top;" parent="1" vertex="1">
          <mxGeometry x="400" y="92" width="286" height="340" as="geometry" />
        </mxCell>
        <mxCell id="7d933b09d9755ecc-13" value="" style="ellipse;whiteSpace=wrap;html=1;rounded=0;shadow=0;comic=0;strokeWidth=1;fontFamily=Verdana;" parent="1" vertex="1">
          <mxGeometry x="473" y="326" width="142" height="94" as="geometry" />
        </mxCell>
        <mxCell id="7d933b09d9755ecc-4" value="" style="verticalLabelPosition=bottom;aspect=fixed;html=1;verticalAlign=top;strokeColor=none;shape=mxgraph.citrix.directory_server;rounded=0;shadow=0;comic=0;fontFamily=Verdana;" parent="1" vertex="1">
          <mxGeometry x="1063" y="64" width="65" height="88.5" as="geometry" />
        </mxCell>
        <mxCell id="7d933b09d9755ecc-5" value="" style="verticalLabelPosition=bottom;aspect=fixed;html=1;verticalAlign=top;strokeColor=none;shape=mxgraph.citrix.file_server;rounded=0;shadow=0;comic=0;fontFamily=Verdana;" parent="1" vertex="1">
          <mxGeometry x="1053" y="611" width="71" height="97" as="geometry" />
        </mxCell>
        <mxCell id="7d933b09d9755ecc-6" value="Users" style="verticalLabelPosition=bottom;aspect=fixed;html=1;verticalAlign=top;strokeColor=none;shape=mxgraph.citrix.users;rounded=0;shadow=0;comic=0;fontFamily=Verdana;" parent="1" vertex="1">
          <mxGeometry x="511" y="339" width="64.5" height="55" as="geometry" />
        </mxCell>
        <mxCell id="7d933b09d9755ecc-9" value="" style="verticalLabelPosition=bottom;aspect=fixed;html=1;verticalAlign=top;strokeColor=none;shape=mxgraph.citrix.tower_server;rounded=0;shadow=0;comic=0;fontFamily=Verdana;" parent="1" vertex="1">
          <mxGeometry x="511" y="193" width="65" height="85" as="geometry" />
        </mxCell>
        <mxCell id="7d933b09d9755ecc-15" value="" style="ellipse;whiteSpace=wrap;html=1;rounded=0;shadow=0;comic=0;strokeWidth=1;fontFamily=Verdana;" parent="1" vertex="1">
          <mxGeometry x="979" y="440" width="220" height="140" as="geometry" />
        </mxCell>
        <mxCell id="7d933b09d9755ecc-16" value="Disabled users" style="verticalLabelPosition=bottom;aspect=fixed;html=1;verticalAlign=top;strokeColor=none;shape=mxgraph.citrix.users;rounded=0;shadow=0;comic=0;fontFamily=Verdana;" parent="1" vertex="1">
          <mxGeometry x="1060" y="477" width="64.5" height="55" as="geometry" />
        </mxCell>
        <mxCell id="7d933b09d9755ecc-17" value="" style="verticalLabelPosition=bottom;aspect=fixed;html=1;verticalAlign=top;strokeColor=none;shape=mxgraph.citrix.tower_server;rounded=0;shadow=0;comic=0;fontFamily=Verdana;" parent="1" vertex="1">
          <mxGeometry x="1060" y="331" width="65" height="85" as="geometry" />
        </mxCell>
        <mxCell id="7d933b09d9755ecc-18" value="User forest" style="triangle;whiteSpace=wrap;html=1;rounded=0;shadow=0;comic=0;strokeWidth=1;fontFamily=Verdana;direction=north;labelPosition=center;verticalLabelPosition=bottom;align=center;verticalAlign=top;" parent="1" vertex="1">
          <mxGeometry x="1580" y="76" width="286" height="340" as="geometry" />
        </mxCell>
        <mxCell id="7d933b09d9755ecc-19" value="" style="ellipse;whiteSpace=wrap;html=1;rounded=0;shadow=0;comic=0;strokeWidth=1;fontFamily=Verdana;" parent="1" vertex="1">
          <mxGeometry x="1653" y="310" width="142" height="90" as="geometry" />
        </mxCell>
        <mxCell id="7d933b09d9755ecc-20" value="Users" style="verticalLabelPosition=bottom;aspect=fixed;html=1;verticalAlign=top;strokeColor=none;shape=mxgraph.citrix.users;rounded=0;shadow=0;comic=0;fontFamily=Verdana;" parent="1" vertex="1">
          <mxGeometry x="1691" y="323" width="64.5" height="55" as="geometry" />
        </mxCell>
        <mxCell id="7d933b09d9755ecc-21" value="" style="verticalLabelPosition=bottom;aspect=fixed;html=1;verticalAlign=top;strokeColor=none;shape=mxgraph.citrix.tower_server;rounded=0;shadow=0;comic=0;fontFamily=Verdana;" parent="1" vertex="1">
          <mxGeometry x="1691" y="177" width="65" height="85" as="geometry" />
        </mxCell>
        <mxCell id="7d933b09d9755ecc-22" style="rounded=0;html=1;labelBackgroundColor=none;startArrow=none;startFill=0;endArrow=block;endFill=1;strokeColor=#0000FF;strokeWidth=1;fontFamily=Verdana;fontSize=12" parent="1" source="7d933b09d9755ecc-19" target="7d933b09d9755ecc-15" edge="1">
          <mxGeometry relative="1" as="geometry" />
        </mxCell>
        <mxCell id="7d933b09d9755ecc-23" style="rounded=0;html=1;labelBackgroundColor=none;startArrow=none;startFill=0;endArrow=block;endFill=1;strokeColor=#0000FF;strokeWidth=1;fontFamily=Verdana;fontSize=12" parent="1" source="7d933b09d9755ecc-13" target="7d933b09d9755ecc-15" edge="1">
          <mxGeometry relative="1" as="geometry" />
        </mxCell>
        <mxCell id="7d933b09d9755ecc-24" style="edgeStyle=none;rounded=0;html=1;exitX=0.5;exitY=1;labelBackgroundColor=none;startArrow=none;startFill=0;endArrow=block;endFill=1;strokeColor=#0000FF;strokeWidth=1;fontFamily=Verdana;fontSize=12;fontColor=#000000;" parent="1" source="7d933b09d9755ecc-15" target="7d933b09d9755ecc-5" edge="1">
          <mxGeometry relative="1" as="geometry" />
        </mxCell>
        <mxCell id="7d933b09d9755ecc-25" value="Trust relationship" style="html=1;labelBackgroundColor=none;startArrow=none;startFill=0;endArrow=block;endFill=1;strokeColor=#FF0000;strokeWidth=1;fontFamily=Verdana;fontSize=12;entryX=1;entryY=0.5;curved=1;" parent="1" target="7d933b09d9755ecc-18" edge="1">
          <mxGeometry x="-0.0165" y="-10" relative="1" as="geometry">
            <mxPoint x="1095" y="230" as="sourcePoint" />
            <mxPoint x="1530" y="240" as="targetPoint" />
            <Array as="points">
              <mxPoint x="1400" y="110" />
            </Array>
            <mxPoint as="offset" />
          </mxGeometry>
        </mxCell>
        <mxCell id="7d933b09d9755ecc-26" value="Trust relationship" style="html=1;entryX=1;entryY=0.5;labelBackgroundColor=none;startArrow=none;startFill=0;endArrow=block;endFill=1;strokeColor=#FF0000;strokeWidth=1;fontFamily=Verdana;fontSize=12;curved=1;" parent="1" target="7d933b09d9755ecc-12" edge="1">
          <mxGeometry x="-0.0644" y="45" relative="1" as="geometry">
            <mxPoint x="1095" y="230" as="sourcePoint" />
            <Array as="points">
              <mxPoint x="920" y="120" />
            </Array>
            <mxPoint as="offset" />
          </mxGeometry>
        </mxCell>
        <mxCell id="7d933b09d9755ecc-27" value="Synchronization" style="rounded=0;html=1;entryX=0.878;entryY=0.433;entryPerimeter=0;labelBackgroundColor=none;startArrow=none;startFill=0;endArrow=block;endFill=1;strokeWidth=1;fontFamily=Verdana;fontSize=12" parent="1" source="7d933b09d9755ecc-4" target="7d933b09d9755ecc-18" edge="1">
          <mxGeometry x="-0.3348" y="21" relative="1" as="geometry">
            <mxPoint as="offset" />
          </mxGeometry>
        </mxCell>
        <mxCell id="7d933b09d9755ecc-28" value="Synchronization" style="edgeStyle=none;rounded=0;html=1;labelBackgroundColor=none;startArrow=none;startFill=0;endArrow=block;endFill=1;strokeWidth=1;fontFamily=Verdana;fontSize=12" parent="1" source="7d933b09d9755ecc-4" target="7d933b09d9755ecc-14" edge="1">
          <mxGeometry x="-0.2966" relative="1" as="geometry">
            <mxPoint as="offset" />
          </mxGeometry>
        </mxCell>
        <mxCell id="7d933b09d9755ecc-29" value="Synchronization" style="edgeStyle=none;rounded=0;html=1;entryX=0.912;entryY=0.559;entryPerimeter=0;labelBackgroundColor=none;startArrow=none;startFill=0;endArrow=block;endFill=1;strokeWidth=1;fontFamily=Verdana;fontSize=12" parent="1" source="7d933b09d9755ecc-4" target="7d933b09d9755ecc-12" edge="1">
          <mxGeometry x="-0.1948" y="-14" relative="1" as="geometry">
            <mxPoint as="offset" />
          </mxGeometry>
        </mxCell>
        <mxCell id="7d933b09d9755ecc-31" value="User forest" style="triangle;whiteSpace=wrap;html=1;rounded=0;shadow=0;comic=0;strokeWidth=1;fontFamily=Verdana;direction=north;labelPosition=center;verticalLabelPosition=bottom;align=center;verticalAlign=top;" parent="1" vertex="1">
          <mxGeometry x="483" y="477" width="286" height="340" as="geometry" />
        </mxCell>
        <mxCell id="7d933b09d9755ecc-32" value="" style="ellipse;whiteSpace=wrap;html=1;rounded=0;shadow=0;comic=0;strokeWidth=1;fontFamily=Verdana;" parent="1" vertex="1">
          <mxGeometry x="556" y="711" width="142" height="89" as="geometry" />
        </mxCell>
        <mxCell id="7d933b09d9755ecc-33" value="Users" style="verticalLabelPosition=bottom;aspect=fixed;html=1;verticalAlign=top;strokeColor=none;shape=mxgraph.citrix.users;rounded=0;shadow=0;comic=0;fontFamily=Verdana;" parent="1" vertex="1">
          <mxGeometry x="594" y="724" width="64.5" height="55" as="geometry" />
        </mxCell>
        <mxCell id="7d933b09d9755ecc-34" value="" style="verticalLabelPosition=bottom;aspect=fixed;html=1;verticalAlign=top;strokeColor=none;shape=mxgraph.citrix.tower_server;rounded=0;shadow=0;comic=0;fontFamily=Verdana;" parent="1" vertex="1">
          <mxGeometry x="594" y="578" width="65" height="85" as="geometry" />
        </mxCell>
        <mxCell id="7d933b09d9755ecc-35" value="User forest" style="triangle;whiteSpace=wrap;html=1;rounded=0;shadow=0;comic=0;strokeWidth=1;fontFamily=Verdana;direction=north;labelPosition=center;verticalLabelPosition=bottom;align=center;verticalAlign=top;" parent="1" vertex="1">
          <mxGeometry x="1405" y="460" width="286" height="340" as="geometry" />
        </mxCell>
        <mxCell id="7d933b09d9755ecc-36" value="" style="ellipse;whiteSpace=wrap;html=1;rounded=0;shadow=0;comic=0;strokeWidth=1;fontFamily=Verdana;" parent="1" vertex="1">
          <mxGeometry x="1478" y="694" width="142" height="96" as="geometry" />
        </mxCell>
        <mxCell id="7d933b09d9755ecc-37" value="Users" style="verticalLabelPosition=bottom;aspect=fixed;html=1;verticalAlign=top;strokeColor=none;shape=mxgraph.citrix.users;rounded=0;shadow=0;comic=0;fontFamily=Verdana;" parent="1" vertex="1">
          <mxGeometry x="1516" y="707" width="64.5" height="55" as="geometry" />
        </mxCell>
        <mxCell id="7d933b09d9755ecc-38" value="" style="verticalLabelPosition=bottom;aspect=fixed;html=1;verticalAlign=top;strokeColor=none;shape=mxgraph.citrix.tower_server;rounded=0;shadow=0;comic=0;fontFamily=Verdana;" parent="1" vertex="1">
          <mxGeometry x="1516" y="561" width="65" height="85" as="geometry" />
        </mxCell>
        <mxCell id="7d933b09d9755ecc-39" style="edgeStyle=none;rounded=0;html=1;exitX=1;exitY=0.5;labelBackgroundColor=none;startFill=0;endArrow=block;endFill=1;strokeColor=#0000FF;strokeWidth=1;fontFamily=Verdana;fontSize=12;" parent="1" source="7d933b09d9755ecc-32" target="7d933b09d9755ecc-15" edge="1">
          <mxGeometry relative="1" as="geometry" />
        </mxCell>
        <mxCell id="7d933b09d9755ecc-40" style="edgeStyle=none;rounded=0;html=1;exitX=0;exitY=0.5;labelBackgroundColor=none;startFill=0;endArrow=block;endFill=1;strokeColor=#0000FF;strokeWidth=1;fontFamily=Verdana;fontSize=12;" parent="1" source="7d933b09d9755ecc-36" target="7d933b09d9755ecc-15" edge="1">
          <mxGeometry relative="1" as="geometry" />
        </mxCell>
        <mxCell id="7d933b09d9755ecc-41" value="Trust relationship" style="html=1;exitX=1;exitY=0.5;labelBackgroundColor=none;startFill=0;endArrow=block;endFill=1;strokeColor=#FF0000;strokeWidth=1;fontFamily=Verdana;fontSize=12;entryX=1;entryY=0.5;curved=1;" parent="1" source="7d933b09d9755ecc-14" target="7d933b09d9755ecc-31" edge="1">
          <mxGeometry x="0.0622" relative="1" as="geometry">
            <mxPoint x="660" y="490" as="targetPoint" />
            <Array as="points">
              <mxPoint x="890" y="270" />
            </Array>
            <mxPoint as="offset" />
          </mxGeometry>
        </mxCell>
        <mxCell id="7d933b09d9755ecc-42" value="Trust relationship" style="html=1;exitX=1;exitY=0.5;entryX=1;entryY=0.5;labelBackgroundColor=none;startFill=0;endArrow=block;endFill=1;strokeColor=#FF0000;strokeWidth=1;fontFamily=Verdana;fontSize=12;curved=1;" parent="1" source="7d933b09d9755ecc-14" target="7d933b09d9755ecc-35" edge="1">
          <mxGeometry x="0.3227" y="10" relative="1" as="geometry">
            <Array as="points">
              <mxPoint x="1380" y="290" />
            </Array>
            <mxPoint as="offset" />
          </mxGeometry>
        </mxCell>
        <mxCell id="7d933b09d9755ecc-43" value="Synchronization" style="edgeStyle=none;rounded=0;html=1;entryX=0.653;entryY=0.304;entryPerimeter=0;labelBackgroundColor=none;startFill=0;endArrow=block;endFill=1;strokeWidth=1;fontFamily=Verdana;fontSize=12;" parent="1" source="7d933b09d9755ecc-4" target="7d933b09d9755ecc-35" edge="1">
          <mxGeometry relative="1" as="geometry" />
        </mxCell>
        <mxCell id="7d933b09d9755ecc-44" value="Synchronization" style="edgeStyle=none;rounded=0;html=1;entryX=0.544;entryY=0.766;entryPerimeter=0;labelBackgroundColor=none;startFill=0;endArrow=block;endFill=1;strokeWidth=1;fontFamily=Verdana;fontSize=12;" parent="1" source="7d933b09d9755ecc-4" target="7d933b09d9755ecc-31" edge="1">
          <mxGeometry x="-0.1797" y="19" relative="1" as="geometry">
            <mxPoint as="offset" />
          </mxGeometry>
        </mxCell>
      </root>
    </mxGraphModel>
  </diagram>
  <diagram id="qUJ034iTKjnf0Bsjd5q8" name="Page-2">
    <mxGraphModel dx="321" dy="344" grid="1" gridSize="10" guides="1" tooltips="1" connect="1" arrows="1" fold="1" page="1" pageScale="1" pageWidth="827" pageHeight="1169" math="0" shadow="0">
      <root>
        <mxCell id="k5Qg1t6MHRIEkyn5puzD-0" />
        <mxCell id="k5Qg1t6MHRIEkyn5puzD-1" parent="k5Qg1t6MHRIEkyn5puzD-0" />
        <mxCell id="k5Qg1t6MHRIEkyn5puzD-122" value="" style="html=1;verticalLabelPosition=bottom;align=center;labelBackgroundColor=#ffffff;verticalAlign=top;strokeWidth=2;strokeColor=#0080F0;shadow=0;dashed=0;shape=mxgraph.ios7.icons.cloud;fontColor=#000000;fillColor=default;" vertex="1" parent="k5Qg1t6MHRIEkyn5puzD-1">
          <mxGeometry x="414" y="790" width="96" height="50" as="geometry" />
        </mxCell>
        <mxCell id="k5Qg1t6MHRIEkyn5puzD-21" value="" style="group" vertex="1" connectable="0" parent="k5Qg1t6MHRIEkyn5puzD-1">
          <mxGeometry x="67" y="170" width="685" height="100" as="geometry" />
        </mxCell>
        <mxCell id="k5Qg1t6MHRIEkyn5puzD-12" value="" style="edgeStyle=orthogonalEdgeStyle;rounded=0;orthogonalLoop=1;jettySize=auto;html=1;entryX=0.033;entryY=0.5;entryDx=0;entryDy=0;entryPerimeter=0;" edge="1" parent="k5Qg1t6MHRIEkyn5puzD-21" target="k5Qg1t6MHRIEkyn5puzD-3">
          <mxGeometry relative="1" as="geometry">
            <mxPoint x="58" y="30" as="sourcePoint" />
            <mxPoint x="220" y="30" as="targetPoint" />
          </mxGeometry>
        </mxCell>
        <mxCell id="k5Qg1t6MHRIEkyn5puzD-3" value="" style="sketch=0;html=1;aspect=fixed;strokeColor=none;shadow=0;align=center;verticalAlign=top;fillColor=#3B8DF1;shape=mxgraph.gcp2.website" vertex="1" parent="k5Qg1t6MHRIEkyn5puzD-21">
          <mxGeometry x="240.62" y="10" width="41.24" height="40" as="geometry" />
        </mxCell>
        <mxCell id="k5Qg1t6MHRIEkyn5puzD-4" value="Website&lt;br&gt;" style="text;html=1;align=center;verticalAlign=middle;resizable=0;points=[];autosize=1;strokeColor=none;fillColor=none;" vertex="1" parent="k5Qg1t6MHRIEkyn5puzD-21">
          <mxGeometry x="231.24" y="65" width="60" height="20" as="geometry" />
        </mxCell>
        <mxCell id="k5Qg1t6MHRIEkyn5puzD-6" value="User" style="text;html=1;align=center;verticalAlign=middle;resizable=0;points=[];autosize=1;strokeColor=none;fillColor=none;" vertex="1" parent="k5Qg1t6MHRIEkyn5puzD-21">
          <mxGeometry x="4.5" y="60" width="40" height="20" as="geometry" />
        </mxCell>
        <mxCell id="k5Qg1t6MHRIEkyn5puzD-10" value="" style="shape=image;verticalLabelPosition=bottom;labelBackgroundColor=#ffffff;verticalAlign=top;aspect=fixed;imageAspect=0;image=data:image/png,iVBORw0KGgoAAAANSUhEUgAAAO4AAADUCAMAAACs0e/bAAABUFBMVEX///8dEin3yInwph46Ojw3MEIAAAAAACkbDyfvoQAAACD/z43/0I4AACIAAB4GABr2y46Ni5E8NUXZkygAABHxrz353bcAABgTACEAABX3qx329ve3tbkAAAYUCykKACX//PYvJzooHzP75MTX1tgMAB1bPivnnyJaVWDgmCgXEB8jGi8PAB8uND3knCOpp6yDaVPGoHKCf4bit4DLys2sqq9xbXaqiWXWrXqfnKLp6OqYel14X04wNT1TQT5qVEj98N9kYGpKRFGfgGCsdySYaSYiLz60kWrduI9BMjdcSUL0u2LRz9K4fSo+KipQNyljRCmMYSctHirHjCiEZTZyWzsyIio8LTVvTSKaczXJp4W2eyphTzjzuV3416j1wHIuI0AcFz1/WD4lHkKUZTpFQT5ZTDyWaCSpfDN6VChuSio0JSKacjMgFyGfbiCDbF7zhz8WAAAdDUlEQVR4nO1d/V/TyNYnrSRD0qRCq20DTbYIllIoLUXeXxSQAooIVdHdVe/ee91Vdx/2///tmTkzk0zeSuvapno9n/2spU3a+c55P3NmMjLydWhm5it90bdB49Nxj2CgVM2uxj2EAdKmLBXH4x7E4GgjJ0ny/w7eubwkSdm5uIcxKJIlQrP5lbgHMhB6WgS4EpLn/hccElFdBIDz8tz3z+HVBUkqUbwYcHVjM+4B9ZcQkqqj0wyvhHLyxMZ3LNSTsoSmR0cllzDi2UcPvjvIVGpnMNzS6OgokkTECwU5Nze+8h0J9gqNHFeyEsJoR0sevARyPpeVrbnxqe+Dz6My/LNUkCQC11VfL+Z0VpYnVpe+dUavyIUN8i/xQwB3tBoClxns2UJRLuwvP3g6Gfewv5T286hIBj+exoaZUiRcxujZbFFe+DalG1soaZZo73JammZwR8PEOVy6x7+xeGR5Fo9dngLuOnAD5ipSutPF4tyDb0iyiwQZKm6OjOdcuN3jJZCz8txU3DC6pBWaF+RL2DIjF25PePHtxdmNb4LFq1iWp/GAZ/ex3xXg9oiXRGDL3wDgBYRjKeJpF7B9onA56J7gYkoPfyWE2GUcOgJ/JOaIShxvtTcGS1Ku+CBuQJ1pKgtwmeQyvwuhc2R81YlQcWKogy7ihoiFYsA4So63RwWWSKK8ETemDrSfp3Cp4CIeZTh4exdoqbg/vCbLImimOS6Osiq5eEu9wpUWCk/jhhVFUHyscj46jld4+SUaLA+pxdqktVYHVtVFiKoO3lLPEj2kLonC5SpbQvwV9bklF7DUI+DiUC42zVC4Di4nrgKT7AkqewQ8lItrTJiF1MCjsEhgMH6nJ8DDiJfBlUaDREsaqPrFgLPLnp96Ogzmi8IFaS6VvHjZqL8csBBwbK4WhyL8QEL0iHx4nQK7NO1+Mt0Df2Ve6ViWZ2mBKG6CNU5mm6uiaRr1RJAIVadLlHrAi2QaQO/jwHzhUcxIgcbTksPeaSkaL0AG6oG7Un6U/MZqAb8sLMUNlRDO6SmWEqATYosgXpGq3fmlAjZXT8E+ZIejhCfzkTFl9SpwJF5U6i5ZkmcgC8Fxx1DE0aR2Q8fPV8N8DI7Cga/vJpZGo8zXDQXc8aLAL7564NXgqHiZTEsXsXSeSUFxCIR5ShYGhhx2eYKpCCZWq2Raukge2AXZ+Euzm0XvYF11RJInXA4l7JmmRycwh7tS4lz8ORI1IlFcEaKpcB5SXwwO7Ga48fvdB8XOI0Qu4qh8iPjhaVK7hFed3BOqxg03ezNTSLsGjaU7mGEWZBLM1WhllmMuUY4XbkTLIGPMGPQN12BJmMByXYoy13Hbqi6Y6wHUxRUg1xGSP7t885D6SFO9we1yTjCPS+GSH7Py7svdLFp/AeLpiOAzXuUtbT7q5If+CeJqKN50zJ5XDhnqVwMckhbLsRqrlRvc7j8EHPKmHGfrCmks+lIiEXNvmT7MQZw7O+ZuUF00XY2EBJFFqcMF4VSIUX0LN42UWBwKSSDMWEq0Ol0qdZkiUIrPOm92YamckJmTt1TJ/uxhCWk2tlo7r1J1Ik/JtRN1vUgox5Xld2mpEE/zbqAuOUwauGIh0orfJYUUXKvVad8slDp/B3dM+Yl44E784xCSma5pjrrjxf/iP5eNxzp/vZgKcnwCOboxWPpXSeF4Ywk2ujHMDh7LtnVdVznZoZgx5Oiv+O1jW1Loy/x+DHBnugshka2rBjrd3lprNNablNbrYXglqVPJ6re/zORnhjcO69yNH7J01do7WE9oKU3TEi7Zvau9/e9KzTykAo1Kg4f74MbSjW1cba17cQJpUcztOHPPKplMMmNZ5I/i4FMjvvQXQUjX6+upAFRCTaN3tARvu5KplV+RqUKFgcMV3e6/AoOz9a1EKNYvZC7Bq5xhvMln5O7swFc/hXzI+o8PLzK2o8Bi0uEeYqox2VbXeJHyGOM1z21i0wYN111BsJ/99z8e22PZjVQk2ERDxybMOKkftFqttYP6laoS1LZFySYuKwqwcgH8tWLQXqeYpJybZ7+JcO0rYK1GKJUiRlnktFbXjd1WAt6GKxLNxtpWfft0l9Dpdn3roBHJYIK3nLy0pPygt4DnGELluWl+/E3k7QnGoBEMGMLV5dXuXv2g0XQwa3u7PhOm8YlhpG1HKzeR52QN+6NBJ76ygzZZ+a8iaNhlorG1q6tUQBGyIKIyrO0WU+d1zcWJcTfXCTWb3Gw36nYnU6YcVipmW5Fyg207YukfRlvOVM5Fe3NJ7E8gjsDRlb69nhJ52mzVd23VgLDSMGB+bN3QO8cgSGlnyuZjZbBlqxXKXPsco80869Kz2MZpk4t0Yu3E8E9LV1Uc6xKHG+Z9a6DGimquVU2WM22J89ZSguQFZBt1sGKJuqoLEoFTCOcGogGdJ+15pZwsKyhbGB9UYxlb/FMqyUzb4uNWnl9cH55hWSsnk2YyWa61z64vnl8CaGew+hW2WltOTkRn6PL89cXj6+vD6+vHFxefz323+Em5riRx+CyhQW3EmaSrYcqhKaI9MwklGZmckpnDi3OXz5bVuNQdpOcXh+2aGaBkpX0eiRdZ2BmZxPtKhelBGOiNApUqs5a5dEaFwTtIsYgTqtTKHHbm+jmDjHRsrvHrZxeHlRCg/DvOlCi4kv25lky24XM0iGQQGIWUZLJy37VSygUdq1l7cevIocUPL9+c1TjkzyCninT/cZvNQ+Xsrxcvf/39w62dxVsffn3xscwAm39Ew5WUNr7gOZ3o/i8cTRUZN2uPhTFZz2GkZvto55ZIOzuLRx/eAAwMr1ypVMqUi2by7OXO0eLizs6OcOkLNmmv1RCcFtVp6z6+IjOoZB/CZeuZyQSKq1QVBlo+uhVCi0dvHDnl4vpxZ3EneOXRSzprr2ZDwD5/fPGMpPjA3vuUvajPARatUilts3zfY06UP4hJ/rgYBteB4aJ9GTov+MIMcF6VqHNy/ZJyn4gFDqmQZH02k2Z7MLUrSOytcxOsCRK8pKLjcb4I4RiFwUwZ+//HCLS3Fj9iKBfpef1Tpf3LNfZLVQUMBBEnahswXoXMLA9Lin3NfqGCht1O8txCyqvnkivROo53XkbB3QH2mm1sj8m/HyIuu7WDxT6jzs8r7RomYOgngle55nKBfa51TeaE/TLK9hEt7KVBCI9JwQEsHsy1gxdbr2ju7vxqEoVTjQIx4WYUWgLXvFbnsaUvl8sYcJKJrfI4k8EOF/RayZiCsZIKfcwXQJax1zE/KfRX6eSTOSDvRsMlNretpk9bi0QSf4+Cu/gX/mpilhXr/Pmnx2ftCv0B63OFok3iDOEz/DAPvVC6f3AniF1WsD3JVMmP4hSBCZV1gjMG800UXNDJz0Zu7XjvD7ODjuPrzD/BLOPkkcXR8NdlJUPiFmCrkqT/cu3tm/OdJLJsWSb5sTb5zVqFOnzrZE1XTPOvCMsMFremzhvHx3u2GW3Bby1iq4BlGUi9OnErOTj1y9QoexX6045x7l9/KGlAQVYNRArQZirUOOutho6l+zASBhF7dfYSw9Wxkc5EWeajjNlmIYbaSqUOnHBDOWTCjANm5Zo6+U8ULyr2Cy7J6yE8Np9PgwLVmMUwEk0Dj6IdAYMYZsxc++/j23v2K3xnpBSUzT8oRKOBs8XULo9TlQsckJF0C+uE8onCzdh97mVfXcAesAb28ZyqLg3mrd2URrKG8KiKquRrdV5da6a2bZI9RXos0zyHkr2+RYsffGWf2CoqzdgF3adOuMLMZN9qOTiCVC4ArkKD5AwNnPUDTavblhllco+SJvamSD++TS67xEFK+LxgKSiD6lpXtPKhrbNVB+u8kkly00wj1iSb6/5VJtM4pDkDHSLeoIytJTXMaiORaKjK2whbhd0QZtq8dXqc0LZsHDOYZjh3sRQcgiwb66yqldqjHCSmOVMBYb5WFMZdpklotk9wZWIiyW+WQX/KGC6MRiWMqNr/jpBmrJGHmGnqAYZ7oJPsMcI2YykAWba3nToeZ6+N4UKkgeMq6omwW3hFRV3uUyGHwAULWWPmgqoPsvHoMBClbL4JwXv00Szr8/OSfozhtnSSopvmhxD+Lr4xKyDLatMpWqZOaDihOGHVmaLUGFxW9Sj2aUnf4W6F5vOVymdIQU+AGQjPQUiuc0RE2ZjHLDtuJrSfIWY6M2tB9u78DgYNT0fdLb0TcWCOl4XNbUWpwItyhWVl/doz54OLhZnCPYUSY8MgYfSbIw+QnSMcF14QEMbPGG7iZwMizppZ+eADfPQrGDSmGw6tU8eknHHHGwK3T3FVEeCWHe4maVBF4SZSdZ3grb35cHS0CHR0dOtFDdDO44uOMdzbx6CL1nzZTP5162gRihk7UPTAKUZtft7HXDyL1LsqvzBTRaLIthduoU97tyfAMpeJ7jK49wW4CW1P1V+TrK3cPvv415u/PkKhsX1O0BLmAlyaqFo4uMIffXzx8ldML198JJW6Qz09DzGLSKlTy4FLDXIQbp9y3kcLEslEiWUmcHEMeV/QXTy0AyOtvm67hVczc/2nmp5P27aOmYtN1e3jXVZ2Uf/v2lN1TR7+CdOCmetZMWUr4Mo1i5lD4PYrzsD5n3JWqXC4+AdBmJHCB6g161I2l/7z9cX19fUfr891VU2nC7nT7e29y78xe7Xm32B5yGKZYaj/9+m63a6UK+2zP57reFrmmVcTV0m1NbgDZ7xJL9xyrd9wp7KQmpAw4xOFC6ZKMlzHoaWarfrvV7lCLmcQAPOF3QYs6KaaB6fbu4aNLF017JPTvd1qIed0W8GlgBa9mjb07aYLuMHhMlNVY3BrfYe7KRMLmSFB5GuThDWVzzTMaHmMi5ZoNhtr9dNZDMA4SNFVXPL/NV1Xddp9lML/NbeM2XlGOQydLh1h5Ua2seYGGiqFS5pRRLiVSr91d2QBEbjlpGl9ptylUbr99+2En7QUkUKbhPra2ukpTAiW9XUqqRr9r6nTuAhJOAxttk4Np7xpOBrcZHC5ZcZwM/DbGccR9etUjdUF5Zr0OJmvaIrAYmZ0dRyAC+ExDS/3DMtST+ib9P/rp7q623SDCBWEV0utn6q8uKlyvBxuxdXdCuR/mX77Xay8JDXJlM3zc2qZ2VKC8XMIe7cwFBWPuQGu1q66vmXLwDNh2wneZ+Ua41TLWQw11ujc0Esw3LIDtwalhUy/oypQ3scE7+dXVJgPKVycuAfZ21DBhwJscs0pX87eomG/jvGk4GAvXZikZpXjTdPWBgb3mgfNGQq34sLtV8w8MoJHRwoLlU80CavxtToS/gfIQpLe4J4ED5/Z7ybruSPRU+oSkVze057C8SJb5O5hhikvq81lXLj9Wzkhhykolxe/XBD9caoZpJ5xfOyXZ61lkDpHIsH0MceS2BarQBHuJgw3l+fE7Zdk76Vc3f1FSBGo6rrc7RdaujsMKYpN6mM4RXDK6jrGe9xsEshOXxHWUYR9lLZuk24xw+HhiWoRZ1OlMYRlNT1oSa7B1ZfYcwb3TIALThDDpV3B/Wyjm+UHKFwmTfybl84qkS1tkTDx+Oef17a2XMOjg9Fdb6013NZBrXVq6fYedUT6lQ8t5BqCOK9zuCzfbSuWCczN/NLn4g2mJd65bT1rt69fiT0lulq9qtqkecgBoCW2dPjL2+pL+I//S63buurVW/Y57wvQsclmURXBV6HpPfYK8NczelVfd39O8H5IK9gzAntKkN4UQ16tUQ+wj+nodm73ILxddN0R5ybUPwAuK6sfKvcpWr4q1ted6ps37Ycz1n0Iovpfm81EeNMzFmfeK2idpiASQVXudskiUUVE2+eewc10x01ERisKXk/E1w8MunkBvapw7r5WPmFPeHbO0aJ8P9GOjEzuF6MZrNc79Pd2Tzw2wezdhhyTFF4ztKJvf3786ZWrRwt93xo4lc5GbGi1dzuiDdmdEEU623zCYIGpqkHNF1sNsXdyEIdMTO3L2YUgj1kgFIn2oF5vdMneuo2uBEtIupmZ6vp+cjDn0G0+WC0VZZ8aw0JWJwyq0eqSu03D3toV8Z4RvGbF33LVf1kWMHv3PgrV/3C4zAt3Q6kTfWtd2JeClItMpXao+EVqoNvkPOca3SDKEDMaN1ziXntgHPAVIsZfHLoG0A52l5zniAt97SZD1ND1rm3Vem5Nu3nb0WD3QIpwrVc3QmkaVtd+Ssu1Eqm9G/be5Aa7QV2Eq3YRYBjVruGmrtadJZMoGvSeIkF30eXNaDWre7jaHmDuFLL2uyUyQMJ+sZs1F5otuodLciVeuwul/MA3L6+6van6zQiw4zW6j6ghIOlgrLIDaVf3kLvX097rAoi2VugaLaUoaUa5OI5gd3fy6l1lQuvZbsMMPkHBPaHkgVVydWBbTURy92kb3eEodBkzO3BbfuVF03PLcT1fcIYfOoCkrpQydXKTQfN/3PS5IjQaD1KgSQ7XOu3K5Gpb9c5wU4FSj89WxbA7W6A8rwnfAINT41XHaUnVT/2lH/92uX61FXVF3PHqB93B1XIdP97Lrvve4Z1GwwGXe6LuDDOJlaJtlda80gPVkCDcOA8VnMr2BjfRCCssU2AN3TL8zB0yuNw06906GG03Cm7dQCH1gUCcEesZeyPFHrmrbYU66NT6tC4hK+R6v9+NFy5bVegmQWC0FoIpsW2g8FJXIGiOFy6zVd06ogQL/T1gcd5DQkX1IMRJNYaLu8xWWX6T2uwWvqa1JFjR1cMKe9DhMTymyomr/Plfc7sRtQLkgZM4oGAlfS8sAEnt+ss3MR9Nzc7yVQMyejW9FrnmxbCm1us6W6tXw4u2wXw31jDDOVYiqLzadkE9bUUh1jStuXVlsOUPZGyFog0mRFLMT69hJ7GhYDUj1VJ1XT3ZaiQ8h8HAQSjNVr1q8CYMyY46KScoy/3cBNcV7Ue6Iq15oiNL143pU3IAGz19rdFaq+9a4pEglrEXtQgclOU4jiPzELPNqBrWdnAA50YgcmYTOf8ETkDxHhFiqVeRhyCF1DLysT8jgbWnhEYaGo4N9ejiKbKNk04nPgm5PfuSmE+VH+FnS4RpLwW8Zauhh9kgWyVn4UQbb5G5/CzRAZ/vE0asXcMO9ZwEcGNbV0URBuE2LuuNDgeXJbyam12hlYS4H5GAaYllgWpk4Kxp68RA6eQQI6y+0u72FjnHqhNWZxsCJXmTJl/xxpCU+BG8ga4bD2Iitk04nYocHtkZKrmoJVblcDC1QfDGHGUAsTOdsDb2WEbuRE2PiSMwV3NYhePGSogvnljTXw2t5ilj0H2No/mBHzQXTmm+0fbyK6FNbXvCR1pe3iymY/dDQE+dgnO169SvI9otbzmdRRcr8lA8EhA7X6c3VO9gr7pGe+CLHnl0MT4ET1EDesTPW0dGWFWiR976Y2Vn88wQGGZK+85ar3raOXy4ibR6oEdhGJ6N56OS02Rl260vZ7CW2A0u2cf9eK0QmnTxIvecxF4p1bCENIitycT/8LQQmpxwD262jPqXSDQrwXLKzlGLMMhWwB5oXziXu8M5zZFgtTXPsafy8sgjsAh92/f2D2lVOFQf6Wq92U050gHbuhQDR0Sc7KSMhlN1KW3IngOMyQHFXa4NJg6mVfHefBYezErSrbged9EFPS14umAtXd9uJG5IgDSSEqveqkd2grnY0fww5PSRNDnnbd4nRYu9tWZUpzqUJXH6761KIbePCOe5w5DkRtOSv60bmy3D2sMZPT95m59DrTUbB9uXwZOKc0h4wvBqbhjdkECbc3KgOEUqsKp+dbpdP1hrNVprB1v1vRPbUEMOZUayJ++ZlIcjDepAK1L4gyDZI050doR8aMUuW/LJ7tLwRZABWsp90ZMvUa6/Rz/2jzbyUftvOoCVY+n++zo0NSHP9sDifDb7DYMlNLOcLnaHGDN2YkhDxZ5oZTUv5/IdIaOFglwaH9ZAsWea2ZgrytnZMMwon87Ks4+WvhusjGamludmZbmYLeTShHKFbLEoy9OPxqe+N6gOTc48nVoaB9pYmlqZ+W6B/qAf9IN+0A/6QT/oB/0P0OQyxHXeN1dosLdMOnsmp8b9tEErKk/hD1/3zwa7lcSImw+Ct/LizN3bYZR4OHIvAS9+IhfBy9vvfEOmF9wjLx/SKzwfh3/z7Yd0zDKO2bPeXfsPZIjkoSy2JGdpXC8QTk9JKj5OLpO9deBVuLUAz89ZlbP+O/EntNb2diycfhr5ib64K1zlRfse3kuSl+zasYfi53civhougo2a3va7cbr6AUCWgnVFQgWyTgX7pryrr3ShKJ8lPJwLf5grzMTbsWQoEWRv4dUdYBRcNnZP/Il79D0Y/BP6NWMe9kZ8dfIt+XCZrDt5+tFWofcA0QcchaOlvbaQw4rNTpMlWMTKIyLJKxHPYSYdJQ+jhnTHxfgTcA9evhdGx956584GIeGCjt9Ne3TFA/kog5AMxW3arpbPCgRlc3JmBfTmi48mmElDOW52FGaA9nanxVth6siTSBiiICV8gO44POcEcjH21kXu8ppzP0BJd9IKXhZxBuVoOgodvPm5KYGWF5j0Py1KnrM6VqgkFNg7j8h16XHx1n1yATna8TaM+f3dAAkiCsy47Zfmdy7r2VzA3wmBu8FvfevMHzScu89O3MwBgxaqDD/snfEepArST94CrXePP3tA0RZ503EpuFqZ5289CaqkQIJ2PvRJ80MBPpuKAP+D9H6M3wTnAzrPBmEMyjmLjGHWCN566td6bt8cowd/ew42pNJPNuGaLovCaMy1P0kvmjsueoY8zJr5yRV40LCF5RkgZoazbjdeLsiiLJd+wF2YordS+ya5bgkeoe5dnHWkn2nnPR858N+POfYn4UGTcD9gGG6LMxBB7OfIS3ou0UIRiHqOotsMQfnhOeKMSn+a45YK9NYFwZoDgdZ7HdwS93nMeAZMyl124T0X4z1RmkUf9J4r+F0XDKGHwbVVwRaMBhxNWogbKD88rZdwwgDp29sMOBqUF5YqqdZ7YhCq9Q9EB+IlR7zHXPsj6qbpCvk9x2Qx3vGpuhtlmOHbgmOeFRzpktcaEQLpJ2+5Jytw8szLHFdxl/a5IbgXBZdrYMLhGHM28InAJREj5fNbduvtTt9N/SrKU6KDFgLKYAxCpZ+8RbchsFupjGSFiUFBract52Q2A3Fe0rUmhFwDzJwNkWYh/GDe1yPiTDLeRqCF6QANQ6U5oH3aGpV1FS4Qg3D/MsNwo316a4lOlfvoRar1niesUK234PU7n3q9F0SWEP3zicurMQ9D3wkmi1/8TvgjaBaewIegYU63xxxtbXQNTtHhR5BFHr86SZ/Mi7L82kitD+/BfugZv+NT3YBw7N5bNgPu1UmPaICQO5PiJW70IfRx/SrdweIcjkT54dmbBf4FwhKvX2VNzY7nedBB60PoriCcAqCAHlL+3/G/7WrCQ1e/Qyjv1TBmbfMMIbfCkw6NTBEYpG9vxjcVG7JHE7gVFm51tP6nAFHbNCYktgIiATO1ZYlQayRkDVFemGqY8LTEKTpodrAZjfLzskDwTm6c+1WhX/FRWtQEujswLd4Krplo/ZOQ3MAFQ+mdK8au26LOJMqu33GmYsxfEGA044vyMVdoqCE/cFgUQsQijRPgHr9KzRXThIjnfyN5JEIWk0lPXuNkOzxucgBx1xT0rOT2t/55E2kqmNuz8wNg0OO50DHPEgUFv+o5uH6ThqBUE0rhcKFDrGNCyumt++Y7j596EqKdbpDtcUp+Gk8jhLwtpZMFRChfBQBpFKB8ESo3efLa61dxgkEIKh1T8kLw1llIICLyb18JhomwGzd5UnofICeWfuiNKH20OjoxMTHtbWWaKU0QKpFBb47vT/hpFZRzUoKLvF+3QW+tkitmVgO37i/DL91L3gmjhBfBT3BVksZNcMF74W2ftD6k7z5k3/0kHO3/A9829tZ41AuhAAAAAElFTkSuQmCC;" vertex="1" parent="k5Qg1t6MHRIEkyn5puzD-21">
          <mxGeometry x="576.93" y="50" width="56.13" height="50" as="geometry" />
        </mxCell>
        <mxCell id="k5Qg1t6MHRIEkyn5puzD-14" value="&lt;span&gt;Create user / Login&amp;nbsp;&lt;/span&gt;" style="text;html=1;align=center;verticalAlign=middle;resizable=0;points=[];autosize=1;strokeColor=none;fillColor=none;" vertex="1" parent="k5Qg1t6MHRIEkyn5puzD-21">
          <mxGeometry x="70" width="120" height="20" as="geometry" />
        </mxCell>
        <mxCell id="k5Qg1t6MHRIEkyn5puzD-15" value="&lt;br&gt;user&lt;br&gt;database" style="strokeWidth=2;html=1;shape=mxgraph.flowchart.database;whiteSpace=wrap;" vertex="1" parent="k5Qg1t6MHRIEkyn5puzD-21">
          <mxGeometry x="410" width="60" height="60" as="geometry" />
        </mxCell>
        <mxCell id="k5Qg1t6MHRIEkyn5puzD-17" value="" style="edgeStyle=orthogonalEdgeStyle;rounded=0;orthogonalLoop=1;jettySize=auto;html=1;" edge="1" parent="k5Qg1t6MHRIEkyn5puzD-21" source="k5Qg1t6MHRIEkyn5puzD-3" target="k5Qg1t6MHRIEkyn5puzD-15">
          <mxGeometry relative="1" as="geometry" />
        </mxCell>
        <mxCell id="k5Qg1t6MHRIEkyn5puzD-16" value="Purchase In Game Crowns &lt;br&gt;using Koko Swap" style="text;html=1;align=center;verticalAlign=middle;resizable=0;points=[];autosize=1;strokeColor=none;fillColor=none;" vertex="1" parent="k5Qg1t6MHRIEkyn5puzD-21">
          <mxGeometry x="525" y="15" width="160" height="30" as="geometry" />
        </mxCell>
        <mxCell id="k5Qg1t6MHRIEkyn5puzD-18" value="" style="edgeStyle=orthogonalEdgeStyle;rounded=0;orthogonalLoop=1;jettySize=auto;html=1;" edge="1" parent="k5Qg1t6MHRIEkyn5puzD-21" source="k5Qg1t6MHRIEkyn5puzD-15" target="k5Qg1t6MHRIEkyn5puzD-16">
          <mxGeometry relative="1" as="geometry" />
        </mxCell>
        <mxCell id="k5Qg1t6MHRIEkyn5puzD-19" value="Database Created&lt;br&gt;for User&lt;br&gt;" style="text;html=1;align=center;verticalAlign=middle;resizable=0;points=[];autosize=1;strokeColor=none;fillColor=none;" vertex="1" parent="k5Qg1t6MHRIEkyn5puzD-21">
          <mxGeometry x="284" width="110" height="30" as="geometry" />
        </mxCell>
        <mxCell id="k5Qg1t6MHRIEkyn5puzD-20" value="" style="sketch=0;outlineConnect=0;fontColor=#232F3E;gradientColor=none;fillColor=#232F3E;strokeColor=none;dashed=0;verticalLabelPosition=bottom;verticalAlign=top;align=center;html=1;fontSize=12;fontStyle=0;aspect=fixed;pointerEvents=1;shape=mxgraph.aws4.user;" vertex="1" parent="k5Qg1t6MHRIEkyn5puzD-21">
          <mxGeometry width="49" height="49" as="geometry" />
        </mxCell>
        <mxCell id="k5Qg1t6MHRIEkyn5puzD-34" style="edgeStyle=orthogonalEdgeStyle;rounded=0;orthogonalLoop=1;jettySize=auto;html=1;exitX=1;exitY=0.5;exitDx=0;exitDy=0;entryX=0.5;entryY=1;entryDx=0;entryDy=0;entryPerimeter=0;startArrow=classic;startFill=1;" edge="1" parent="k5Qg1t6MHRIEkyn5puzD-1" source="k5Qg1t6MHRIEkyn5puzD-29" target="k5Qg1t6MHRIEkyn5puzD-15">
          <mxGeometry relative="1" as="geometry" />
        </mxCell>
        <mxCell id="k5Qg1t6MHRIEkyn5puzD-40" style="edgeStyle=orthogonalEdgeStyle;rounded=0;orthogonalLoop=1;jettySize=auto;html=1;startArrow=classic;startFill=1;" edge="1" parent="k5Qg1t6MHRIEkyn5puzD-1" source="k5Qg1t6MHRIEkyn5puzD-29">
          <mxGeometry relative="1" as="geometry">
            <mxPoint x="650" y="340" as="targetPoint" />
          </mxGeometry>
        </mxCell>
        <mxCell id="k5Qg1t6MHRIEkyn5puzD-29" value="" style="shape=image;html=1;verticalAlign=top;verticalLabelPosition=bottom;labelBackgroundColor=#ffffff;imageAspect=0;aspect=fixed;image=https://cdn1.iconfinder.com/data/icons/social-media-vol-3-1/24/_play_game-128.png" vertex="1" parent="k5Qg1t6MHRIEkyn5puzD-1">
          <mxGeometry x="260" y="315" width="50" height="50" as="geometry" />
        </mxCell>
        <mxCell id="k5Qg1t6MHRIEkyn5puzD-30" value="" style="group;container=1;" vertex="1" connectable="0" parent="k5Qg1t6MHRIEkyn5puzD-1">
          <mxGeometry x="40" y="320" width="40" height="90" as="geometry">
            <mxRectangle x="40" y="320" width="50" height="40" as="alternateBounds" />
          </mxGeometry>
        </mxCell>
        <mxCell id="k5Qg1t6MHRIEkyn5puzD-25" value="" style="shape=image;html=1;verticalAlign=top;verticalLabelPosition=bottom;labelBackgroundColor=#ffffff;imageAspect=0;aspect=fixed;image=https://cdn2.iconfinder.com/data/icons/social-media-iconez/64/PlayStore-128.png" vertex="1" parent="k5Qg1t6MHRIEkyn5puzD-30">
          <mxGeometry x="20" width="40" height="40" as="geometry" />
        </mxCell>
        <mxCell id="k5Qg1t6MHRIEkyn5puzD-32" style="edgeStyle=orthogonalEdgeStyle;rounded=0;orthogonalLoop=1;jettySize=auto;html=1;" edge="1" parent="k5Qg1t6MHRIEkyn5puzD-1" source="k5Qg1t6MHRIEkyn5puzD-24" target="k5Qg1t6MHRIEkyn5puzD-29">
          <mxGeometry relative="1" as="geometry" />
        </mxCell>
        <mxCell id="k5Qg1t6MHRIEkyn5puzD-24" value="" style="shape=image;html=1;verticalAlign=top;verticalLabelPosition=bottom;labelBackgroundColor=#ffffff;imageAspect=0;aspect=fixed;image=https://cdn0.iconfinder.com/data/icons/apple-apps/100/Apple_Store-128.png" vertex="1" parent="k5Qg1t6MHRIEkyn5puzD-1">
          <mxGeometry x="100" y="320" width="40" height="40" as="geometry" />
        </mxCell>
        <mxCell id="k5Qg1t6MHRIEkyn5puzD-33" value="Game &lt;br&gt;Downloaded &lt;br&gt;from Store&lt;br&gt;" style="text;html=1;align=center;verticalAlign=middle;resizable=0;points=[];autosize=1;strokeColor=none;fillColor=none;" vertex="1" parent="k5Qg1t6MHRIEkyn5puzD-1">
          <mxGeometry x="140" y="290" width="80" height="50" as="geometry" />
        </mxCell>
        <mxCell id="k5Qg1t6MHRIEkyn5puzD-35" value="User login and &lt;br&gt;connected to database" style="text;html=1;align=center;verticalAlign=middle;resizable=0;points=[];autosize=1;strokeColor=none;fillColor=none;" vertex="1" parent="k5Qg1t6MHRIEkyn5puzD-1">
          <mxGeometry x="325.25" y="300" width="140" height="30" as="geometry" />
        </mxCell>
        <mxCell id="k5Qg1t6MHRIEkyn5puzD-41" value="In Game Store&lt;br&gt;" style="text;html=1;align=center;verticalAlign=middle;resizable=0;points=[];autosize=1;strokeColor=none;fillColor=none;" vertex="1" parent="k5Qg1t6MHRIEkyn5puzD-1">
          <mxGeometry x="625" y="295" width="90" height="20" as="geometry" />
        </mxCell>
        <mxCell id="k5Qg1t6MHRIEkyn5puzD-42" value="User Crown &lt;br&gt;to purchase items" style="text;html=1;align=center;verticalAlign=middle;resizable=0;points=[];autosize=1;strokeColor=none;fillColor=none;" vertex="1" parent="k5Qg1t6MHRIEkyn5puzD-1">
          <mxGeometry x="510" y="300" width="110" height="30" as="geometry" />
        </mxCell>
        <mxCell id="k5Qg1t6MHRIEkyn5puzD-70" style="edgeStyle=orthogonalEdgeStyle;rounded=0;orthogonalLoop=1;jettySize=auto;html=1;startArrow=none;startFill=0;" edge="1" parent="k5Qg1t6MHRIEkyn5puzD-1" source="k5Qg1t6MHRIEkyn5puzD-44">
          <mxGeometry relative="1" as="geometry">
            <mxPoint x="170" y="637" as="targetPoint" />
          </mxGeometry>
        </mxCell>
        <mxCell id="k5Qg1t6MHRIEkyn5puzD-44" value="" style="shape=image;html=1;verticalAlign=top;verticalLabelPosition=bottom;labelBackgroundColor=#ffffff;imageAspect=0;aspect=fixed;image=https://cdn1.iconfinder.com/data/icons/social-media-vol-3-1/24/_play_game-128.png" vertex="1" parent="k5Qg1t6MHRIEkyn5puzD-1">
          <mxGeometry x="50" y="612" width="50" height="50" as="geometry" />
        </mxCell>
        <mxCell id="k5Qg1t6MHRIEkyn5puzD-45" value="" style="html=1;verticalLabelPosition=bottom;align=center;labelBackgroundColor=#ffffff;verticalAlign=top;strokeWidth=2;strokeColor=#0080F0;shadow=0;dashed=0;shape=mxgraph.ios7.icons.chat;" vertex="1" parent="k5Qg1t6MHRIEkyn5puzD-1">
          <mxGeometry x="220" y="562" width="30" height="18" as="geometry" />
        </mxCell>
        <mxCell id="k5Qg1t6MHRIEkyn5puzD-47" value="" style="shape=image;html=1;verticalAlign=top;verticalLabelPosition=bottom;labelBackgroundColor=#ffffff;imageAspect=0;aspect=fixed;image=https://cdn3.iconfinder.com/data/icons/minimal-business-line/64/bid-128.png" vertex="1" parent="k5Qg1t6MHRIEkyn5puzD-1">
          <mxGeometry x="215" y="612" width="40" height="40" as="geometry" />
        </mxCell>
        <mxCell id="k5Qg1t6MHRIEkyn5puzD-49" value="" style="shape=image;html=1;verticalAlign=top;verticalLabelPosition=bottom;labelBackgroundColor=#ffffff;imageAspect=0;aspect=fixed;image=https://cdn3.iconfinder.com/data/icons/seo-black-fill-easy-1/128/target_group_group_People_Friends_Group_Conversation_Team_Community-128.png" vertex="1" parent="k5Qg1t6MHRIEkyn5puzD-1">
          <mxGeometry x="215" y="494" width="40" height="40" as="geometry" />
        </mxCell>
        <mxCell id="k5Qg1t6MHRIEkyn5puzD-50" value="" style="shape=image;html=1;verticalAlign=top;verticalLabelPosition=bottom;labelBackgroundColor=#ffffff;imageAspect=0;aspect=fixed;image=https://cdn4.iconfinder.com/data/icons/multimedia-75/512/multimedia-12-128.png" vertex="1" parent="k5Qg1t6MHRIEkyn5puzD-1">
          <mxGeometry x="648" y="315" width="44" height="44" as="geometry" />
        </mxCell>
        <mxCell id="k5Qg1t6MHRIEkyn5puzD-74" style="edgeStyle=orthogonalEdgeStyle;rounded=0;orthogonalLoop=1;jettySize=auto;html=1;entryX=0.008;entryY=0.633;entryDx=0;entryDy=0;entryPerimeter=0;startArrow=none;startFill=0;" edge="1" parent="k5Qg1t6MHRIEkyn5puzD-1" source="k5Qg1t6MHRIEkyn5puzD-53" target="k5Qg1t6MHRIEkyn5puzD-73">
          <mxGeometry relative="1" as="geometry" />
        </mxCell>
        <mxCell id="k5Qg1t6MHRIEkyn5puzD-53" value="Friend List" style="text;html=1;align=center;verticalAlign=middle;resizable=0;points=[];autosize=1;strokeColor=none;fillColor=none;" vertex="1" parent="k5Qg1t6MHRIEkyn5puzD-1">
          <mxGeometry x="200" y="522" width="70" height="20" as="geometry" />
        </mxCell>
        <mxCell id="k5Qg1t6MHRIEkyn5puzD-75" style="edgeStyle=orthogonalEdgeStyle;rounded=0;orthogonalLoop=1;jettySize=auto;html=1;startArrow=none;startFill=0;" edge="1" parent="k5Qg1t6MHRIEkyn5puzD-1" source="k5Qg1t6MHRIEkyn5puzD-54">
          <mxGeometry relative="1" as="geometry">
            <mxPoint x="490" y="560" as="targetPoint" />
          </mxGeometry>
        </mxCell>
        <mxCell id="k5Qg1t6MHRIEkyn5puzD-54" value="Chat" style="text;html=1;align=center;verticalAlign=middle;resizable=0;points=[];autosize=1;strokeColor=none;fillColor=none;" vertex="1" parent="k5Qg1t6MHRIEkyn5puzD-1">
          <mxGeometry x="210" y="582" width="40" height="20" as="geometry" />
        </mxCell>
        <mxCell id="k5Qg1t6MHRIEkyn5puzD-55" value="Bidding&lt;br&gt;" style="text;html=1;align=center;verticalAlign=middle;resizable=0;points=[];autosize=1;strokeColor=none;fillColor=none;" vertex="1" parent="k5Qg1t6MHRIEkyn5puzD-1">
          <mxGeometry x="205" y="652" width="60" height="20" as="geometry" />
        </mxCell>
        <mxCell id="k5Qg1t6MHRIEkyn5puzD-57" value="In Game System" style="swimlane;" vertex="1" parent="k5Qg1t6MHRIEkyn5puzD-1">
          <mxGeometry x="168.24" y="472" width="130" height="318" as="geometry" />
        </mxCell>
        <mxCell id="k5Qg1t6MHRIEkyn5puzD-46" value="" style="shape=image;html=1;verticalAlign=top;verticalLabelPosition=bottom;labelBackgroundColor=#ffffff;imageAspect=0;aspect=fixed;image=https://cdn1.iconfinder.com/data/icons/videogames-4/32/Videogames_two_players_joysticks_multiplayer-128.png" vertex="1" parent="k5Qg1t6MHRIEkyn5puzD-57">
          <mxGeometry x="46.75999999999999" y="228" width="40" height="40" as="geometry" />
        </mxCell>
        <mxCell id="k5Qg1t6MHRIEkyn5puzD-56" value="Multiplayer&lt;br&gt;" style="text;html=1;align=center;verticalAlign=middle;resizable=0;points=[];autosize=1;strokeColor=none;fillColor=none;" vertex="1" parent="k5Qg1t6MHRIEkyn5puzD-57">
          <mxGeometry x="36.760000000000005" y="268" width="70" height="20" as="geometry" />
        </mxCell>
        <mxCell id="k5Qg1t6MHRIEkyn5puzD-115" style="edgeStyle=elbowEdgeStyle;rounded=0;orthogonalLoop=1;jettySize=auto;html=1;exitX=1;exitY=0.25;exitDx=0;exitDy=0;fontColor=#000000;startArrow=none;startFill=0;" edge="1" parent="k5Qg1t6MHRIEkyn5puzD-1" source="k5Qg1t6MHRIEkyn5puzD-60">
          <mxGeometry relative="1" as="geometry">
            <mxPoint x="600" y="703.6190476190475" as="targetPoint" />
          </mxGeometry>
        </mxCell>
        <mxCell id="k5Qg1t6MHRIEkyn5puzD-60" value="" style="aspect=fixed;perimeter=ellipsePerimeter;html=1;align=center;shadow=0;dashed=0;spacingTop=3;image;image=img/lib/active_directory/sql_server.svg;" vertex="1" parent="k5Qg1t6MHRIEkyn5puzD-1">
          <mxGeometry x="520" y="690" width="38.5" height="50" as="geometry" />
        </mxCell>
        <mxCell id="k5Qg1t6MHRIEkyn5puzD-61" value="Dedicated &lt;br&gt;Server" style="text;html=1;align=center;verticalAlign=middle;resizable=0;points=[];autosize=1;strokeColor=none;fillColor=none;" vertex="1" parent="k5Qg1t6MHRIEkyn5puzD-1">
          <mxGeometry x="504.25" y="750" width="70" height="30" as="geometry" />
        </mxCell>
        <mxCell id="k5Qg1t6MHRIEkyn5puzD-69" style="edgeStyle=orthogonalEdgeStyle;rounded=0;orthogonalLoop=1;jettySize=auto;html=1;startArrow=none;startFill=0;" edge="1" parent="k5Qg1t6MHRIEkyn5puzD-1" source="k5Qg1t6MHRIEkyn5puzD-46">
          <mxGeometry relative="1" as="geometry">
            <mxPoint x="510" y="720" as="targetPoint" />
          </mxGeometry>
        </mxCell>
        <mxCell id="k5Qg1t6MHRIEkyn5puzD-72" value="Connects to&lt;br&gt;dedicated server" style="text;html=1;align=center;verticalAlign=middle;resizable=0;points=[];autosize=1;strokeColor=none;fillColor=none;" vertex="1" parent="k5Qg1t6MHRIEkyn5puzD-1">
          <mxGeometry x="364" y="730" width="100" height="30" as="geometry" />
        </mxCell>
        <mxCell id="k5Qg1t6MHRIEkyn5puzD-77" style="edgeStyle=orthogonalEdgeStyle;rounded=0;orthogonalLoop=1;jettySize=auto;html=1;entryX=0;entryY=0.5;entryDx=0;entryDy=0;entryPerimeter=0;startArrow=none;startFill=0;" edge="1" parent="k5Qg1t6MHRIEkyn5puzD-1" source="k5Qg1t6MHRIEkyn5puzD-73" target="k5Qg1t6MHRIEkyn5puzD-76">
          <mxGeometry relative="1" as="geometry" />
        </mxCell>
        <mxCell id="k5Qg1t6MHRIEkyn5puzD-73" value="Connects with other players&amp;nbsp;" style="rounded=0;whiteSpace=wrap;html=1;" vertex="1" parent="k5Qg1t6MHRIEkyn5puzD-1">
          <mxGeometry x="430" y="494" width="120" height="60" as="geometry" />
        </mxCell>
        <mxCell id="k5Qg1t6MHRIEkyn5puzD-76" value="&lt;br&gt;user&lt;br&gt;database" style="strokeWidth=2;html=1;shape=mxgraph.flowchart.database;whiteSpace=wrap;" vertex="1" parent="k5Qg1t6MHRIEkyn5puzD-1">
          <mxGeometry x="660" y="494" width="60" height="60" as="geometry" />
        </mxCell>
        <mxCell id="k5Qg1t6MHRIEkyn5puzD-84" value="" style="html=1;shadow=0;dashed=0;shape=mxgraph.bootstrap.rrect;rSize=5;html=1;whiteSpace=wrap;" vertex="1" parent="k5Qg1t6MHRIEkyn5puzD-1">
          <mxGeometry x="611.25" y="690" width="140.75" height="150" as="geometry" />
        </mxCell>
        <mxCell id="k5Qg1t6MHRIEkyn5puzD-85" value="Game Modes" style="html=1;shadow=0;dashed=0;shape=mxgraph.bootstrap.topButton;rSize=5;strokeColor=none;fillColor=#0085FC;fontColor=#ffffff;perimeter=none;whiteSpace=wrap;resizeWidth=1;align=left;spacing=10;" vertex="1" parent="k5Qg1t6MHRIEkyn5puzD-84">
          <mxGeometry width="140.75" height="30" relative="1" as="geometry" />
        </mxCell>
        <mxCell id="k5Qg1t6MHRIEkyn5puzD-86" value="Match Making" style="strokeColor=inherit;fillColor=inherit;gradientColor=inherit;fontColor=inherit;html=1;shadow=0;dashed=0;perimeter=none;whiteSpace=wrap;resizeWidth=1;align=left;spacing=10;" vertex="1" parent="k5Qg1t6MHRIEkyn5puzD-84">
          <mxGeometry width="140.75" height="30" relative="1" as="geometry">
            <mxPoint y="30" as="offset" />
          </mxGeometry>
        </mxCell>
        <mxCell id="k5Qg1t6MHRIEkyn5puzD-87" value="Free for all" style="strokeColor=inherit;fillColor=inherit;gradientColor=inherit;fontColor=inherit;html=1;shadow=0;dashed=0;perimeter=none;whiteSpace=wrap;resizeWidth=1;align=left;spacing=10;" vertex="1" parent="k5Qg1t6MHRIEkyn5puzD-84">
          <mxGeometry width="140.75" height="30" relative="1" as="geometry">
            <mxPoint y="60" as="offset" />
          </mxGeometry>
        </mxCell>
        <mxCell id="k5Qg1t6MHRIEkyn5puzD-88" value="Private Lobbies" style="strokeColor=inherit;fillColor=inherit;gradientColor=inherit;fontColor=inherit;html=1;shadow=0;dashed=0;perimeter=none;whiteSpace=wrap;resizeWidth=1;align=left;spacing=10;" vertex="1" parent="k5Qg1t6MHRIEkyn5puzD-84">
          <mxGeometry width="140.75" height="30" relative="1" as="geometry">
            <mxPoint y="90" as="offset" />
          </mxGeometry>
        </mxCell>
        <mxCell id="k5Qg1t6MHRIEkyn5puzD-89" value="Public Lobbies" style="strokeColor=inherit;fillColor=inherit;gradientColor=inherit;fontColor=inherit;html=1;shadow=0;dashed=0;shape=mxgraph.bootstrap.bottomButton;rSize=5;perimeter=none;whiteSpace=wrap;resizeWidth=1;resizeHeight=0;align=left;spacing=10;" vertex="1" parent="k5Qg1t6MHRIEkyn5puzD-84">
          <mxGeometry y="1" width="140.75" height="30" relative="1" as="geometry">
            <mxPoint y="-30" as="offset" />
          </mxGeometry>
        </mxCell>
        <mxCell id="k5Qg1t6MHRIEkyn5puzD-108" value="User" style="sketch=0;outlineConnect=0;fontColor=#232F3E;gradientColor=none;strokeColor=#232F3E;fillColor=#ffffff;dashed=0;verticalLabelPosition=bottom;verticalAlign=top;align=center;html=1;fontSize=12;fontStyle=0;aspect=fixed;shape=mxgraph.aws4.resourceIcon;resIcon=mxgraph.aws4.user;" vertex="1" parent="k5Qg1t6MHRIEkyn5puzD-1">
          <mxGeometry x="500" y="860" width="40" height="40" as="geometry" />
        </mxCell>
        <mxCell id="k5Qg1t6MHRIEkyn5puzD-107" value="&lt;br&gt;" style="sketch=0;outlineConnect=0;fontColor=#232F3E;gradientColor=none;strokeColor=#232F3E;fillColor=#ffffff;dashed=0;verticalLabelPosition=bottom;verticalAlign=top;align=center;html=1;fontSize=12;fontStyle=0;aspect=fixed;shape=mxgraph.aws4.resourceIcon;resIcon=mxgraph.aws4.user;" vertex="1" parent="k5Qg1t6MHRIEkyn5puzD-1">
          <mxGeometry x="430" y="810" width="20" height="20" as="geometry" />
        </mxCell>
        <mxCell id="k5Qg1t6MHRIEkyn5puzD-109" value="User" style="sketch=0;outlineConnect=0;fontColor=#232F3E;gradientColor=none;strokeColor=#232F3E;fillColor=#ffffff;dashed=0;verticalLabelPosition=bottom;verticalAlign=top;align=center;html=1;fontSize=12;fontStyle=0;aspect=fixed;shape=mxgraph.aws4.resourceIcon;resIcon=mxgraph.aws4.user;" vertex="1" parent="k5Qg1t6MHRIEkyn5puzD-1">
          <mxGeometry x="574.25" y="860" width="40" height="40" as="geometry" />
        </mxCell>
      </root>
    </mxGraphModel>
  </diagram>
</mxfile>
